<svg xmlns:mydata="http://www.w3.org/2000/svg" mydata:specialfontid="undefined" mydata:id1="385" mydata:id2="218" version="1.1" xmlns="http://www.w3.org/2000/svg" xmlns:xlink="http://www.w3.org/1999/xlink" style="height: 627px;" viewBox="0 0 550 470" mydata="Contrast"><g fill="#101820" fill-rule="nonzero" stroke="none" stroke-width="1" stroke-linecap="butt" stroke-linejoin="miter" stroke-miterlimit="10" stroke-dasharray="" stroke-dashoffset="0" font-family="none" font-weight="none" font-size="none" text-anchor="none" style="mix-blend-mode: normal"><g data-paper-data="{&quot;isGlobalGroup&quot;:true,&quot;bounds&quot;:{&quot;x&quot;:65,&quot;y&quot;:116.98701484788226,&quot;width&quot;:420,&quot;height&quot;:236.02597030423544}}"><g data-paper-data="{&quot;isSecondaryText&quot;:true}" id="element-id-58118"><path d="M203.02409,350.63114c0.2522,0.68653 1.27499,2.38185 3.58678,2.38185c2.26976,0 3.51673,-1.33103 3.51673,-3.20849c0,-2.95629 -4.02112,-2.90025 -4.02112,-3.9931c0,-0.26621 0.19615,-0.44835 0.53241,-0.44835c0.67252,0 0.91071,0.49038 1.10686,0.8967l2.31179,-1.0368c-0.26621,-0.7706 -1.09285,-2.38185 -3.3486,-2.38185c-2.03158,0 -3.39063,1.1629 -3.39063,3.02635c0,3.12442 3.9931,3.15244 3.9931,4.14722c0,0.2522 -0.18214,0.43434 -0.61648,0.43434c-0.50439,0 -1.06483,-0.44835 -1.34504,-0.96675z" data-paper-data="{&quot;glyphName&quot;:&quot;S&quot;,&quot;glyphIndex&quot;:0,&quot;firstGlyphOfWord&quot;:true,&quot;word&quot;:1}" id="element-id-14998"></path><path d="M232.43717,352.83084h2.77415v-4.3854l3.04036,-5.4222h-3.06838l-1.35905,2.95629l-1.30301,-2.95629h-3.12442l3.04036,5.4222z" data-paper-data="{&quot;glyphName&quot;:&quot;Y&quot;,&quot;glyphIndex&quot;:1,&quot;word&quot;:1}" id="element-id-78069"></path><path d="M257.01682,350.63114c0.2522,0.68653 1.27499,2.38185 3.58678,2.38185c2.26976,0 3.51673,-1.33103 3.51673,-3.20849c0,-2.95629 -4.02112,-2.90025 -4.02112,-3.9931c0,-0.26621 0.19615,-0.44835 0.53241,-0.44835c0.67252,0 0.91071,0.49038 1.10686,0.8967l2.31179,-1.0368c-0.26621,-0.7706 -1.09285,-2.38185 -3.3486,-2.38185c-2.03158,0 -3.39063,1.1629 -3.39063,3.02635c0,3.12442 3.9931,3.15244 3.9931,4.14722c0,0.2522 -0.18214,0.43434 -0.61648,0.43434c-0.50439,0 -1.06483,-0.44835 -1.34504,-0.96675z" data-paper-data="{&quot;glyphName&quot;:&quot;S&quot;,&quot;glyphIndex&quot;:2,&quot;word&quot;:1}" id="element-id-53911"></path><path d="M284.37575,352.83084h2.78816v-7.36971h2.03158v-2.43789h-6.82329v2.43789h2.00355z" data-paper-data="{&quot;glyphName&quot;:&quot;T&quot;,&quot;glyphIndex&quot;:3,&quot;word&quot;:1}" id="element-id-37569"></path><path d="M307.37362,352.83084h5.60434v-2.43789h-2.81618v-1.30301h2.28377v-2.42388h-2.28377v-1.20493h2.7041v-2.43789h-5.49226z" data-paper-data="{&quot;glyphName&quot;:&quot;E&quot;,&quot;glyphIndex&quot;:4,&quot;word&quot;:1}" id="element-id-35064"></path><path d="M338.9617,343.02324h-3.62881v9.8076h2.67607v-5.96863l1.87746,5.19803h2.53597l1.89147,-5.19803v5.96863h2.66206v-9.8076h-3.6148l-2.21372,5.82852z" data-paper-data="{&quot;glyphName&quot;:&quot;M&quot;,&quot;glyphIndex&quot;:5,&quot;lastGlyphOfWord&quot;:true,&quot;word&quot;:1}" id="element-id-38640"></path></g><g data-paper-data="{&quot;isPrimaryText&quot;:true}" id="element-id-10012"><path d="M84.97645,329.78476h-6.42807l-6.08194,-13.64728v15.5757h-7.46645v-34.61267h7.46645l9.29597,21.21262l9.29597,-21.21262h7.46645v34.61267h-7.417v-15.5757z" data-paper-data="{&quot;glyphName&quot;:&quot;M&quot;,&quot;glyphIndex&quot;:0,&quot;firstGlyphOfWord&quot;:true,&quot;word&quot;:1}" id="element-id-2112"></path><path d="M126.51166,297.10051h8.99929l-12.26277,19.23475v15.37791h-7.417v-15.32847l-12.36167,-19.2842h8.99929l7.07087,11.42218z" data-paper-data="{&quot;glyphName&quot;:&quot;Y&quot;,&quot;glyphIndex&quot;:1,&quot;lastGlyphOfWord&quot;:true,&quot;word&quot;:1}" id="element-id-93996"></path><path d="M174.0299,329.78476h-6.42807l-6.08194,-13.64728v15.5757h-7.46645v-34.61267h7.46645l9.29597,21.21262l9.29597,-21.21262h7.46645v34.61267h-7.417v-15.5757z" data-paper-data="{&quot;glyphName&quot;:&quot;M&quot;,&quot;glyphIndex&quot;:2,&quot;firstGlyphOfWord&quot;:true,&quot;word&quot;:2}" id="element-id-60073"></path><path d="M203.15399,325.13677l-2.57123,6.57641h-8.05981l13.20226,-34.61267h7.02143l13.20226,34.61267h-8.05981l-2.57123,-6.57641zM206.0219,317.67032h6.42807l-3.21403,-8.99929z" data-paper-data="{&quot;glyphName&quot;:&quot;A&quot;,&quot;glyphIndex&quot;:3,&quot;word&quot;:2}" id="element-id-87476"></path><path d="M258.23758,297.10051v34.61267h-7.31811l-12.55945,-20.86649v20.86649h-7.46645v-34.61267h7.86202l12.06499,19.97645v-19.97645z" data-paper-data="{&quot;glyphName&quot;:&quot;N&quot;,&quot;glyphIndex&quot;:4,&quot;word&quot;:2}" id="element-id-7709"></path><path d="M273.81328,325.13677l-2.57123,6.57641h-8.05981l13.20226,-34.61267h7.02143l13.20226,34.61267h-8.05981l-2.57123,-6.57641zM276.68119,317.67032h6.42807l-3.21403,-8.99929z" data-paper-data="{&quot;glyphName&quot;:&quot;A&quot;,&quot;glyphIndex&quot;:5,&quot;word&quot;:2}" id="element-id-95074"></path><path d="M335.42383,312.92344c0.03296,0.23075 0.04945,0.72522 0.04945,1.4834c0,3.23052 -0.75818,6.20556 -2.27455,8.92512c-1.51636,2.71957 -3.57664,4.8705 -6.18083,6.45279c-2.60419,1.61526 -5.43913,2.42289 -8.50483,2.42289c-3.03273,0 -5.85943,-0.79939 -8.4801,-2.39816c-2.62067,-1.59878 -4.68919,-3.76619 -6.20556,-6.50224c-1.51636,-2.70308 -2.27455,-5.66988 -2.27455,-8.9004c0,-3.19755 0.75818,-6.16435 2.27455,-8.9004c1.51636,-2.73605 3.57664,-4.9117 6.18083,-6.52696c2.63716,-1.58229 5.4721,-2.37344 8.50483,-2.37344c2.4064,0 4.68095,0.50271 6.82364,1.50812c2.14269,1.00542 4.03814,2.41465 5.68637,4.22769c1.61526,1.87897 2.7855,3.93925 3.51071,6.18083h-8.1587c-0.85708,-1.38451 -1.98611,-2.48057 -3.3871,-3.2882c-1.40099,-0.80763 -2.89263,-1.21144 -4.47492,-1.21144c-1.68119,0 -3.25524,0.4615 -4.72216,1.38451c-1.46692,0.923 -2.62891,2.17565 -3.48599,3.75795c-0.85708,1.64822 -1.28561,3.39534 -1.28561,5.24135c0,1.87897 0.42854,3.61785 1.28561,5.21662c0.85708,1.59878 2.01083,2.85967 3.46127,3.78267c1.41747,0.923 2.99976,1.38451 4.74688,1.38451c1.64822,0 3.18931,-0.43678 4.62326,-1.31034c1.43395,-0.87356 2.59595,-2.06852 3.48599,-3.58488h-7.71368v-6.97198z" data-paper-data="{&quot;glyphName&quot;:&quot;G&quot;,&quot;glyphIndex&quot;:6,&quot;word&quot;:2}" id="element-id-88750"></path><path d="M360.24606,324.24673v7.46645h-19.82811v-34.61267h19.82811v7.417h-12.41111v6.92253h10.77937v7.46645h-10.77937v5.34024z" data-paper-data="{&quot;glyphName&quot;:&quot;E&quot;,&quot;glyphIndex&quot;:7,&quot;word&quot;:2}" id="element-id-68357"></path><path d="M385.16718,329.78476h-6.42807l-6.08194,-13.64728v15.5757h-7.46645v-34.61267h7.46645l9.29597,21.21262l9.29597,-21.21262h7.46645v34.61267h-7.417v-15.5757z" data-paper-data="{&quot;glyphName&quot;:&quot;M&quot;,&quot;glyphIndex&quot;:8,&quot;word&quot;:2}" id="element-id-22864"></path><path d="M423.48834,324.24673v7.46645h-19.82811v-34.61267h19.82811v7.417h-12.41111v6.92253h10.77937v7.46645h-10.77937v5.34024z" data-paper-data="{&quot;glyphName&quot;:&quot;E&quot;,&quot;glyphIndex&quot;:9,&quot;word&quot;:2}" id="element-id-34730"></path><path d="M455.77702,297.10051v34.61267h-7.31811l-12.55945,-20.86649v20.86649h-7.46645v-34.61267h7.86202l12.06499,19.97645v-19.97645z" data-paper-data="{&quot;glyphName&quot;:&quot;N&quot;,&quot;glyphIndex&quot;:10,&quot;word&quot;:2}" id="element-id-65633"></path><path d="M469.17707,331.71318v-27.19567h-8.45538v-7.417h24.27831v7.417h-8.40593v27.19567z" data-paper-data="{&quot;glyphName&quot;:&quot;T&quot;,&quot;glyphIndex&quot;:11,&quot;lastGlyphOfWord&quot;:true,&quot;word&quot;:2}" id="element-id-10115"></path></g><g data-paper-data="{&quot;fillRule&quot;:&quot;nonzero&quot;,&quot;fillRuleOriginal&quot;:&quot;nonzero&quot;,&quot;isIcon&quot;:true,&quot;iconStyle&quot;:&quot;standalone&quot;,&quot;selectedEffects&quot;:{&quot;container&quot;:&quot;enclosed_circle_outline2&quot;,&quot;transformation&quot;:&quot;&quot;,&quot;pattern&quot;:&quot;&quot;},&quot;bounds&quot;:{&quot;x&quot;:197.97613141724796,&quot;y&quot;:116.98701484788226,&quot;width&quot;:154.04773716550406,&quot;height&quot;:151.54677104548307},&quot;widthRatioIconToContainer&quot;:0.9999999999999999,&quot;heightRatioIconToContainer&quot;:0.6884859081583239,&quot;relativeBoundsIconToContainer&quot;:{&quot;top&quot;:-0.04429059144455179,&quot;left&quot;:-8.191602250465028e-17},&quot;iconType&quot;:&quot;initial&quot;,&quot;initialText&quot;:&quot;m&quot;,&quot;rawInitialId&quot;:908,&quot;blockLetter&quot;:&quot;O&quot;,&quot;blockLetterId&quot;:0,&quot;suitableAsStandaloneIcon&quot;:true}" id="element-id-55551"><path d="M349.27992,170.62896c-3.87345,5.28198 -15.49382,20.7758 -26.23385,32.74829c0,0 -1.0564,1.23247 -2.81706,2.99312c-0.70427,0.70427 -1.23247,1.23247 -1.76066,1.76066c-4.22559,4.04952 -10.56397,9.3315 -14.96562,9.3315c-0.5282,0 -0.88033,0 -1.0564,-0.17607c-0.17607,0 -0.35213,-0.17607 -0.5282,-0.35213c-0.35213,-0.17607 -0.5282,-0.35213 -0.88033,-0.70427c-0.17607,-0.17607 -0.35213,-0.35213 -0.5282,-0.70427c-0.88033,-1.23247 -1.23247,-2.64099 -0.88033,-3.52132c1.0564,-2.99312 2.64099,-5.63412 3.87345,-8.45117c2.1128,-4.57772 4.04952,-9.3315 5.63412,-14.43742c0.35213,-1.23247 0.70427,-2.64099 1.0564,-3.87345c0.17607,-0.70427 0.35213,-1.40853 0.35213,-2.1128c0.17607,-0.17607 0.17607,-0.5282 0.17607,-0.88033c0.17607,0 0.17607,-0.17607 0.17607,-0.35213c0.17607,-1.93673 0.35213,-3.69739 0.17607,-5.63412c-0.17607,-0.5282 -0.17607,-1.0564 -0.35213,-1.5846c-0.17607,-0.17607 -0.17607,-0.35213 -0.17607,-0.35213c-0.17607,0 -0.17607,-0.17607 -0.17607,-0.17607c0,0 -0.17607,0 -0.35213,0c-0.17607,-0.17607 -0.5282,-0.17607 -0.70427,-0.17607c-0.88033,0.17607 -1.5846,0.35213 -2.1128,0.5282c-2.28886,0.88033 -4.22559,2.28886 -5.98625,3.87345c-2.46493,2.1128 -4.57772,4.40165 -6.51445,6.86658c-1.5846,1.93673 -3.16919,3.87345 -4.57772,5.98625c-1.76066,2.1128 -3.34525,4.04952 -5.10592,6.16232c-5.45805,7.04265 -9.8597,15.14169 -15.84595,21.65613c-2.1128,2.28886 -6.33838,2.1128 -9.8597,-1.23247c-2.81706,-2.46493 -4.22559,-6.33838 -3.34525,-8.8033c1.5846,-4.92985 2.46493,-10.21183 3.34525,-15.31775c0.70427,-5.81018 1.40853,-11.9725 0.88033,-18.31087c-0.5282,0.35213 -0.88033,0.70427 -1.40853,1.0564c-6.51445,5.98625 -11.4443,13.55709 -16.37415,21.12794c-4.40165,6.51445 -8.62724,13.02889 -12.50069,20.07154c-2.1128,3.69739 -4.22559,7.39478 -6.16232,11.26823c-0.88033,1.5846 -1.76066,3.16919 -2.99312,4.57772c-1.76066,2.28886 -4.04952,3.69739 -7.04265,4.57772c-1.93673,0.5282 -4.92985,-0.35213 -7.21871,-1.76066c-2.28886,-1.40853 -4.22559,-3.69739 -5.63412,-6.16232c-3.52132,-6.86658 -3.16919,-13.38102 -2.28886,-19.36727c0.17607,-3.16919 0.5282,-6.51445 1.0564,-9.68364c1.5846,-10.9161 4.04952,-21.304 6.16232,-32.04403c1.0564,-4.92985 1.93673,-10.03577 2.99312,-14.96562c0.5282,-2.46493 1.0564,-4.92985 1.5846,-7.39478c0.17607,-1.23247 0.5282,-2.64099 0.70427,-3.87345c0.17607,-1.40853 0.88033,-2.46493 1.5846,-3.69739c0.17607,-0.17607 0.17607,-0.5282 0.35213,-0.70427c0.35213,-0.5282 0.88033,-1.23247 1.23247,-1.76066c0.17607,-0.35213 0.35213,-0.5282 0.5282,-0.88033c0.17607,-0.17607 0.35213,-0.35213 0.5282,-0.5282c1.0564,-1.40853 2.99312,-1.76066 5.45805,-0.88033c2.99312,1.0564 5.98625,4.40165 6.51445,7.21871c0.5282,1.23247 0.88033,2.46493 1.0564,3.69739c0.17607,0.70427 0.35213,1.40853 0.5282,2.1128c0.17607,1.40853 0.5282,2.81706 0.5282,4.04952c-0.17607,1.23247 -0.35213,2.46493 -0.35213,3.87345c-0.35213,2.46493 -0.70427,5.10592 -1.0564,7.74691c-0.70427,5.63412 -1.93673,11.26823 -3.16919,16.90235c-0.88033,4.40165 -1.93673,8.97937 -2.81706,13.55709c0.70427,-1.0564 1.40853,-2.1128 2.28886,-3.16919c2.46493,-3.34525 5.10592,-6.69052 7.57084,-10.03577c3.16919,-3.87345 6.33838,-7.74691 9.68364,-11.4443c1.93673,-2.1128 4.04952,-4.22559 6.33838,-5.98625c1.93673,-1.5846 4.04952,-2.64099 6.51445,-3.52132c1.23247,-0.5282 2.64099,-0.5282 4.04952,-0.5282c1.23247,-0.17607 2.64099,0.17607 3.87345,0.70427c1.93673,0.88033 3.87345,1.93673 5.45805,3.69739c1.76066,1.76066 2.99312,3.34525 4.04952,5.45805c1.76066,3.52132 2.46493,6.86658 2.81706,10.21183c0.35213,2.28886 0.35213,4.40165 0.35213,6.51445c1.40853,-1.5846 2.81706,-3.16919 4.22559,-4.92985c3.69739,-4.22559 7.57084,-8.45117 11.9725,-12.14856c0,-0.17607 0.17607,-0.35213 0.35213,-0.17607c1.93673,-1.76066 4.22559,-3.16919 6.86658,-4.22559c1.40853,-0.5282 2.81706,-1.0564 4.57772,-1.23247c1.93673,-0.17607 3.69739,0 5.98625,0.5282c3.16919,0.88033 6.51445,3.34525 8.8033,6.16232c2.28886,2.99312 3.16919,5.98625 3.69739,9.15544c0.35213,2.64099 0,5.28198 -0.5282,7.57084c-0.5282,2.64099 -1.23247,5.10592 -2.1128,7.39478c-0.5282,1.5846 -1.0564,3.16919 -1.76066,4.57772l6.51445,-6.33838c1.93673,-2.1128 3.87345,-4.22559 5.98625,-6.51445l19.1912,-19.89547c0.17607,-0.17607 0.35213,-0.35213 0.5282,-0.5282c0.17607,0 0.17607,0 0.35213,-0.17607c0.35213,-0.17607 0.70427,-0.35213 1.23247,-0.35213c0.17607,0.17607 0.5282,0.17607 0.70427,0.17607c1.5846,0.88033 -1.40853,4.92985 -2.28886,6.16232zM217.52145,220.90199c-0.02585,0.13527 -0.06265,0.27685 -0.11504,0.43401c0,0.35213 0,0.5282 0,0.88033c0,-0.42519 0.06418,-0.8504 0.11504,-1.31434zM244.85312,122.94231c9.38656,-3.97019 19.21814,-5.95529 29.49475,-5.95529c10.27661,0 20.10819,1.9851 29.49475,5.95529c9.0657,3.83446 17.09409,9.24718 24.08517,16.23821c6.99108,6.99108 12.40377,15.01939 16.23808,24.08494c0.01756,0.04151 0.03508,0.08303 0.05255,0.12456l-0.93166,0.96597l-1.44524,1.49822c-0.18263,-0.45699 -0.37013,-0.91289 -0.56249,-1.36769c-3.67565,-8.69017 -8.86487,-16.38671 -15.56765,-23.0896c-6.70308,-6.70287 -14.39966,-11.89213 -23.08974,-15.56778c-8.99643,-3.80512 -18.42103,-5.70768 -28.27377,-5.70768c-9.85305,0 -19.27763,1.90256 -28.27377,5.70768c-6.00754,2.54096 -11.54018,5.80523 -16.59794,9.79285l-0.65087,-0.86529l-0.37539,-0.439l-1.0322,-1.06456c5.30845,-4.20282 11.12026,-7.63977 17.43543,-10.31083zM350.1211,192.76056c0,10.27661 -1.98508,20.10819 -5.95525,29.49475c-3.8343,9.0654 -9.247,17.09364 -16.23808,24.08472c-6.99108,6.99137 -15.01947,12.40421 -24.08517,16.23852c-9.38656,3.97016 -19.21814,5.95525 -29.49475,5.95525c-10.27661,0 -20.10819,-1.98508 -29.49475,-5.95525c-9.06567,-3.8346 -17.09404,-9.24744 -24.08512,-16.23852c-1.42627,-1.42627 -2.78685,-2.8957 -4.08173,-4.40831l0.36215,-0.14171l1.40652,-0.62647l0.45584,-0.23398l0.69931,-0.40975c1.07857,1.2316 2.20334,2.43288 3.3743,3.60382c6.7029,6.70308 14.39946,11.89244 23.0897,15.56809c8.99643,3.805 18.42103,5.7075 28.27377,5.7075c9.85275,0 19.27734,-1.9025 28.27377,-5.7075c8.69009,-3.67565 16.38666,-8.86501 23.08974,-15.56809c6.70278,-6.70278 11.892,-14.39921 15.56765,-23.0893c3.805,-8.99643 5.7075,-18.42103 5.7075,-28.27377c0,-3.5271 -0.2438,-6.99932 -0.73139,-10.41665l0.92941,-1.21457l0.94037,-1.23562l0.74503,-0.98396c0.8341,4.52343 1.25115,9.14037 1.25115,13.85081z" data-paper-data="{&quot;isPathIcon&quot;:true}" id="element-id-16386"></path></g></g></g><rect data-element-id="element-id-55551" stroke-width="2" fill="transparent" class="invisible-element-box grouping-element" x="198" y="117" width="154" height="152" data-element-name="isIcon"></rect><rect data-element-id="element-id-16386" stroke-width="2" fill="transparent" class="invisible-element-box individual-element" x="198" y="117" width="154" height="152"></rect><rect data-element-id="element-id-10012" stroke-width="2" fill="transparent" class="invisible-element-box grouping-element" x="65" y="297" width="420" height="36" data-element-name="isPrimaryText"></rect><rect data-element-id="element-id-58118" stroke-width="2" fill="transparent" class="invisible-element-box grouping-element" x="203" y="343" width="144" height="10" data-element-name="isSecondaryText"></rect><rect data-element-id="element-id-88750" stroke-width="2" fill="transparent" class="invisible-element-box individual-element" x="302" y="297" width="34" height="36"></rect><rect data-element-id="element-id-2112" stroke-width="2" fill="transparent" class="invisible-element-box individual-element" x="65" y="297" width="34" height="35"></rect><rect data-element-id="element-id-60073" stroke-width="2" fill="transparent" class="invisible-element-box individual-element" x="154" y="297" width="34" height="35"></rect><rect data-element-id="element-id-22864" stroke-width="2" fill="transparent" class="invisible-element-box individual-element" x="365" y="297" width="34" height="35"></rect><rect data-element-id="element-id-87476" stroke-width="2" fill="transparent" class="invisible-element-box individual-element" x="193" y="297" width="33" height="35"></rect><rect data-element-id="element-id-95074" stroke-width="2" fill="transparent" class="invisible-element-box individual-element" x="263" y="297" width="33" height="35"></rect><rect data-element-id="element-id-93996" stroke-width="2" fill="transparent" class="invisible-element-box individual-element" x="103" y="297" width="32" height="35"></rect><rect data-element-id="element-id-7709" stroke-width="2" fill="transparent" class="invisible-element-box individual-element" x="231" y="297" width="27" height="35"></rect><rect data-element-id="element-id-65633" stroke-width="2" fill="transparent" class="invisible-element-box individual-element" x="428" y="297" width="27" height="35"></rect><rect data-element-id="element-id-10115" stroke-width="2" fill="transparent" class="invisible-element-box individual-element" x="461" y="297" width="24" height="35"></rect><rect data-element-id="element-id-68357" stroke-width="2" fill="transparent" class="invisible-element-box individual-element" x="340" y="297" width="20" height="35"></rect><rect data-element-id="element-id-34730" stroke-width="2" fill="transparent" class="invisible-element-box individual-element" x="404" y="297" width="20" height="35"></rect><rect data-element-id="element-id-38640" stroke-width="2" fill="transparent" class="invisible-element-box individual-element" x="335" y="343" width="12" height="10"></rect><rect data-element-id="element-id-78069" stroke-width="2" fill="transparent" class="invisible-element-box individual-element" x="229" y="343" width="9" height="10"></rect><rect data-element-id="element-id-14998" stroke-width="2" fill="transparent" class="invisible-element-box individual-element" x="203" y="343" width="7" height="10"></rect><rect data-element-id="element-id-53911" stroke-width="2" fill="transparent" class="invisible-element-box individual-element" x="257" y="343" width="7" height="10"></rect><rect data-element-id="element-id-37569" stroke-width="2" fill="transparent" class="invisible-element-box individual-element" x="282" y="343" width="7" height="10"></rect><rect data-element-id="element-id-35064" stroke-width="2" fill="transparent" class="invisible-element-box individual-element" x="307" y="343" width="6" height="10"></rect>
</svg>